<?xml version="1.0" encoding="UTF-8" standalone="no"?>
<!-- Created with Inkscape (http://www.inkscape.org/) -->

<svg
   xmlns:dc="http://purl.org/dc/elements/1.1/"
   xmlns:cc="http://creativecommons.org/ns#"
   xmlns:rdf="http://www.w3.org/1999/02/22-rdf-syntax-ns#"
   xmlns:svg="http://www.w3.org/2000/svg"
   xmlns="http://www.w3.org/2000/svg"
   xmlns:sodipodi="http://sodipodi.sourceforge.net/DTD/sodipodi-0.dtd"
   xmlns:inkscape="http://www.inkscape.org/namespaces/inkscape"
   width="10in"
   height="10in"
   viewBox="0 0 900 900"
   id="svg4250"
   version="1.1"
   inkscape:version="0.91 r13725"
   sodipodi:docname="logo.svg">
  <defs
     id="defs4252" />
  <sodipodi:namedview
     id="base"
     pagecolor="#ffffff"
     bordercolor="#666666"
     borderopacity="1.0"
     inkscape:pageopacity="0.0"
     inkscape:pageshadow="2"
     inkscape:zoom="0.70000001"
     inkscape:cx="43.578057"
     inkscape:cy="461.83575"
     inkscape:document-units="px"
     inkscape:current-layer="layer1"
     showgrid="false"
     inkscape:window-width="1882"
     inkscape:window-height="1099"
     inkscape:window-x="3415"
     inkscape:window-y="20"
     inkscape:window-maximized="0"
     units="in"
     width="10in" />
  <metadata
     id="metadata4255">
    <rdf:RDF>
      <cc:Work
         rdf:about="">
        <dc:format>image/svg+xml</dc:format>
        <dc:type
           rdf:resource="http://purl.org/dc/dcmitype/StillImage" />
        <dc:title></dc:title>
      </cc:Work>
    </rdf:RDF>
  </metadata>
  <g
     inkscape:label="Layer 1"
     inkscape:groupmode="layer"
     id="layer1"
     transform="translate(0,-152.3622)">
    <path
       style="fill:#000000;fill-opacity:1;fill-rule:nonzero;stroke:none;stroke-width:1px;stroke-linecap:butt;stroke-linejoin:miter;stroke-opacity:1"
       id="path4282"
       d="m 80.380485,898.943 c 23.328375,0.45935 46.663805,0.37372 69.995295,0.2987 21.72961,-0.0532 43.2575,1.17834 64.616,-3.42515 11.60002,-3.31388 23.00447,-7.52204 33.96578,-12.64626 4.31243,-2.01602 16.84639,-8.8946 12.75549,-6.44113 -99.10798,59.44 -86.59898,51.60735 -56.28373,31.90235 25.55337,-16.59183 48.06515,-36.72851 68.07214,-59.86616 13.31253,-14.66455 24.57985,-30.93417 35.58641,-47.41377 13.03943,-18.86808 21.10605,-40.60304 29.59802,-61.85218 14.29543,-35.2234 25.62436,-71.47564 34.58624,-108.47079 8.50563,-41.08191 19.13086,-81.50327 32.68326,-121.12449 11.83174,-36.83107 28.86774,-71.37176 47.57455,-104.93393 12.74968,-23.06935 29.49573,-42.83515 48.9033,-60.17063 38.82062,-29.86732 84.00033,-53.03983 126.19902,-75.78617 2.21851,-1.19584 30.06546,-9.9377 31.60442,-10.42806 42.70708,-11.15776 85.90149,-19.21133 129.67968,-24.21452 33.58721,-3.42468 67.31583,-5.13052 101.05254,-5.8862 3.2145,-0.0398 6.42892,-0.0855 9.64342,-0.12817 0,0 -77.99033,58.16329 -77.99033,58.16329 l 0,0 c -3.12619,0.0126 -6.25248,0.0198 -9.37868,0.0332 -32.95124,0.36642 -65.91494,1.63382 -98.69181,5.31824 -43.7229,5.51784 -87.02969,13.9458 -129.41462,26.39996 -44.79848,15.48404 -63.85128,31.81113 38.14414,-30.49441 3.71944,-2.27207 -7.55358,4.34265 -11.27724,6.60734 -3.5722,2.17256 -7.12291,4.38534 -10.6074,6.7026 -3.33867,2.2202 -6.57099,4.60406 -9.85641,6.90605 -20.10204,16.0979 -37.4817,34.87837 -50.94568,57.23816 -18.87496,33.43168 -37.47658,66.64754 -49.09162,103.70849 -13.73167,39.24996 -24.81455,79.22629 -32.92284,120.1242 -8.5055,37.26353 -19.48746,73.77345 -33.26856,109.36713 -8.13249,21.55056 -15.58318,43.71793 -27.56068,63.41324 -11.58349,16.60412 -21.9941,34.1288 -36.14948,48.7017 -19.48178,24.18358 -41.62473,45.25052 -67.25403,62.54876 -48.48542,33.2267 -98.73168,68.3107 -156.20163,82.00193 -21.72456,2.98842 -43.597267,1.99638 -65.473937,1.99758 -23.598776,-0.077 -47.201096,-0.15271 -70.7968826,0.2987 0,0 78.5058546,-58.44701 78.5058546,-58.44701 z"
       inkscape:connector-curvature="0"
       inkscape:export-xdpi="3095.6101"
       inkscape:export-ydpi="3095.6101" />
    <path
       style="fill:#000000;fill-opacity:1;fill-rule:nonzero;stroke:none;stroke-width:1px;stroke-linecap:butt;stroke-linejoin:miter;stroke-opacity:1"
       id="path4614"
       d="m 509.55149,356.88146 c -17.86609,5.87364 -35.68463,11.9463 -53.75924,17.13634 -23.06434,7.73155 -47.11254,10.21092 -71.18972,11.70926 -26.57681,2.01232 -52.86589,1.24237 -79.11341,-3.35041 -28.53129,-5.74578 -55.46601,-17.55919 -81.48321,-30.5568 -21.01184,-9.03375 -40.89309,-20.29426 -60.92159,-31.3062 -6.18588,-3.64526 -12.54511,-6.82461 -18.64333,-10.61888 0,0 57.37293,-38.0062 57.37293,-38.0062 l 0,0 c 5.96718,3.68855 12.09921,7.04905 18.11996,10.64572 19.50055,11.40761 39.26209,22.22585 59.8074,31.58783 25.72717,12.55068 52.3367,23.86423 80.58904,28.7611 25.99891,3.8975 52.08996,4.1457 78.29377,2.03541 23.94293,-1.92083 47.701,-5.27469 70.59153,-13.08311 18.24194,-5.59618 36.51109,-11.32278 54.19961,-18.57508 0,0 -53.86374,43.62102 -53.86374,43.62102 z"
       inkscape:connector-curvature="0"
       inkscape:export-xdpi="3095.6101"
       inkscape:export-ydpi="3095.6101" />
  </g>
</svg>
